<?xml version="1.0" standalone="no"?>
<!DOCTYPE svg PUBLIC "-//W3C//DTD SVG 20010904//EN"
 "http://www.w3.org/TR/2001/REC-SVG-20010904/DTD/svg10.dtd">
<svg version="1.0" xmlns="http://www.w3.org/2000/svg"
 width="164.000000pt" height="99.000000pt" viewBox="0 0 164.000000 99.000000"
 preserveAspectRatio="xMidYMid meet">

<g transform="translate(0.000000,99.000000) scale(0.100000,-0.100000)"
fill="#000000" stroke="none">
<path d="M780 892 l0 -72 -100 0 -100 0 0 -168 0 -168 70 -69 70 -69 0 172 0
172 100 0 100 0 0 -103 0 -103 70 -69 70 -69 0 169 0 170 -140 140 -140 140 0
-73z"/>
<path d="M749 274 c-9 -11 -10 -20 -2 -32 15 -24 44 -27 59 -7 28 38 -27 75
-57 39z"/>
<path d="M650 232 c0 -37 -1 -38 -31 -34 -81 12 -132 -89 -76 -153 23 -27 41
-31 125 -27 l42 2 0 125 0 125 -30 0 c-28 0 -30 -2 -30 -38z m-12 -94 c28 -28
2 -88 -33 -74 -21 8 -29 31 -21 61 7 27 34 33 54 13z"/>
<path d="M20 135 l0 -115 30 0 c28 0 30 2 30 39 0 39 1 40 38 43 32 3 37 6 37
28 0 22 -5 25 -37 28 -30 3 -38 7 -38 23 0 16 7 19 40 19 36 0 40 3 40 25 0
24 -2 25 -70 25 l-70 0 0 -115z"/>
<path d="M1280 135 l0 -115 30 0 c28 0 30 2 30 40 0 39 1 40 35 40 32 0 35 2
35 30 0 28 -3 30 -35 30 -28 0 -35 4 -35 20 0 17 7 20 40 20 36 0 40 3 40 25
0 24 -2 25 -70 25 l-70 0 0 -115z"/>
<path d="M213 176 c-22 -19 -28 -32 -28 -64 0 -69 61 -113 135 -97 24 5 30 12
30 32 0 23 -3 24 -37 19 -21 -4 -45 -2 -53 4 -11 7 1 10 43 10 l57 0 0 35 c0
76 -87 112 -147 61z m87 -36 c0 -5 -12 -10 -26 -10 -14 0 -23 4 -19 10 3 6 15
10 26 10 10 0 19 -4 19 -10z"/>
<path d="M390 109 l0 -89 30 0 c30 0 30 1 30 55 0 53 14 76 45 72 6 -1 11 10
13 25 3 26 2 26 -57 27 l-61 0 0 -90z"/>
<path d="M750 110 l0 -90 30 0 30 0 0 90 0 90 -30 0 -30 0 0 -90z"/>
<path d="M870 182 c-15 -12 -24 -33 -27 -64 -5 -43 -3 -50 26 -79 28 -27 37
-31 69 -25 20 3 49 6 65 6 l27 0 0 89 0 90 -69 0 c-52 0 -76 -4 -91 -17z m90
-46 c28 -34 -11 -94 -44 -67 -16 13 -22 62 -9 74 11 12 40 8 53 -7z"/>
<path d="M1066 192 c-4 -3 -6 -43 -6 -89 l0 -83 30 0 c29 0 30 1 30 48 0 55
19 88 44 79 12 -5 16 -20 16 -67 l0 -60 30 0 30 0 0 61 c0 58 -12 97 -33 111
-13 8 -133 8 -141 0z"/>
<path d="M1477 180 c-34 -27 -44 -78 -23 -118 31 -60 146 -69 154 -13 3 22 1
23 -31 17 -19 -3 -43 -3 -53 1 -13 6 -3 9 36 13 53 5 55 6 58 37 7 70 -82 109
-141 63z m78 -40 c4 -6 -5 -10 -19 -10 -14 0 -26 5 -26 10 0 6 9 10 19 10 11
0 23 -4 26 -10z"/>
</g>
</svg>
